<?xml version="1.0" standalone="no"?>
<!DOCTYPE svg PUBLIC "-//W3C//DTD SVG 20010904//EN"
 "http://www.w3.org/TR/2001/REC-SVG-20010904/DTD/svg10.dtd">
<svg version="1.0" xmlns="http://www.w3.org/2000/svg"
 width="1024.000000pt" height="1024.000000pt" viewBox="0 0 1024.000000 1024.000000"
 preserveAspectRatio="xMidYMid meet">
<metadata>
Created by potrace 1.11, written by Peter Selinger 2001-2013
</metadata>
<g transform="translate(0.000000,1024.000000) scale(0.100000,-0.100000)"
fill="#000000" stroke="none">
<path d="M0 5120 l0 -5120 5120 0 5120 0 0 5120 0 5120 -5120 0 -5120 0 0
-5120z m5464 3861 c377 -69 716 -254 990 -541 144 -151 238 -285 327 -462 245
-489 244 -1142 -4 -1633 -151 -301 -409 -582 -701 -764 -503 -314 -1211 -347
-1760 -82 -286 138 -565 385 -748 661 -216 328 -317 729 -288 1144 32 441 196
809 506 1136 275 288 621 477 990 539 173 29 172 29 379 26 140 -2 221 -9 309
-24z m-1292 -4177 c616 -248 1286 -247 1898 1 l115 47 220 -5 c237 -6 363 -21
520 -62 644 -168 1215 -746 1370 -1385 51 -213 56 -291 53 -787 l-3 -458 -27
-73 c-36 -100 -81 -173 -153 -247 -105 -108 -234 -179 -369 -204 -84 -15
-5268 -15 -5352 0 -235 43 -449 229 -526 459 -22 63 -23 83 -26 523 -3 378 0
477 13 573 58 423 241 783 554 1094 317 314 696 505 1091 549 52 6 109 13 125
15 17 1 109 4 207 5 l176 1 114 -46z"/>
</g>
</svg>
